# xmcd CD database file
#
# Track frame offsets:
#	150
#	21592
#	40604
#	54020
#	70472
#	90260
#	110184
#	127869
#	144575
#	168586
#	181848
#	205233
#	229027
#
# Disc length: 3364 seconds
#
# Revision: 0
# Processed by: cddbd v1.5.2PL0 Copyright (c) Steve Scherf et al.
# Submitted via: CDex 1.70beta2
#
DISCID=ac0d220d
DTITLE=Nicole Henry - The Very Thought Of You
DYEAR=2008
DGENRE=Jazz
TTITLE0=That's All
TTITLE1=Almost Like Being In Love
TTITLE2=I Can't Be Bothered Now
TTITLE3=Waters of March
TTITLE4=What'll I Do
TTITLE5=I Found You
TTITLE6=All That I Can See
TTITLE7=All the Way
TTITLE8=The Very Thought of You
TTITLE9=I'm Gonna Lock My Heart
TTITLE10=At Last
TTITLE11=Make It Last
TTITLE12=Moon River
EXTD=YEAR: 2008
EXTT0=
EXTT1=
EXTT2=
EXTT3=
EXTT4=
EXTT5=
EXTT6=
EXTT7=
EXTT8=
EXTT9=
EXTT10=
EXTT11=
EXTT12=
PLAYORDER=
